<svg xmlns="http://www.w3.org/2000/svg" width="500" height="500" version="1.0" viewBox="0 0 375 375"><defs><clipPath id="a"><path d="M324.742 129.906H365v71.25h-40.258Zm0 0"/></clipPath></defs><g clip-path="url(#a)"><path fill="#0c3060" d="M324.738 156.184c18.797 10.109 30.305 11.316 4.219 38.359 21.29-9.59 23.977-17.645 24.168 6.906 21.863-26.66 6.71-71.543 6.71-71.543s9.782 37.403-35.097 26.278Zm0 0"/></g><path fill="#406596" d="M354.922 145.059c0 4.66-3.777 8.441-8.438 8.441a8.441 8.441 0 0 1-8.441-8.441 8.44 8.44 0 0 1 16.879 0Zm0 0"/><path fill="#0c3060" d="M52.933 172.208V213.1h-9.47v-16.766H24.902V213.1h-9.468v-40.89H24.9v16.124h18.563v-16.125ZM92.763 197.505c0 .117-.058.934-.172 2.453h-23.78c.437 1.95 1.452 3.493 3.046 4.625 1.594 1.125 3.578 1.688 5.953 1.688 1.633 0 3.082-.242 4.344-.734 1.27-.489 2.453-1.258 3.547-2.313l4.843 5.266c-2.96 3.386-7.28 5.078-12.968 5.078-3.543 0-6.68-.688-9.407-2.063-2.718-1.383-4.82-3.3-6.296-5.75-1.48-2.457-2.22-5.25-2.22-8.375 0-3.07.727-5.843 2.188-8.312 1.457-2.477 3.461-4.406 6.016-5.781 2.55-1.383 5.398-2.079 8.547-2.079 3.082 0 5.867.664 8.36 1.985 2.488 1.324 4.44 3.226 5.859 5.703 1.425 2.469 2.14 5.34 2.14 8.61ZM76.466 188.1c-2.062 0-3.797.586-5.203 1.75-1.398 1.168-2.25 2.766-2.562 4.797h15.484c-.312-1.988-1.172-3.578-2.578-4.766-1.398-1.187-3.11-1.781-5.14-1.781ZM98.835 169.755h9.109V213.1h-9.11ZM134.992 181.208c2.914 0 5.57.672 7.969 2.016 2.395 1.344 4.273 3.234 5.64 5.672 1.364 2.43 2.047 5.258 2.047 8.484 0 3.242-.683 6.078-2.046 8.516-1.368 2.43-3.246 4.312-5.641 5.656-2.398 1.344-5.055 2.016-7.969 2.016-4.011 0-7.168-1.266-9.469-3.797v14.656h-9.109v-42.75h8.703v3.625c2.258-2.726 5.551-4.094 9.875-4.094Zm-1.578 24.875c2.332 0 4.25-.785 5.75-2.359 1.5-1.57 2.25-3.687 2.25-6.344 0-2.644-.75-4.754-2.25-6.328-1.5-1.57-3.418-2.36-5.75-2.36-2.336 0-4.25.79-5.75 2.36-1.5 1.574-2.25 3.684-2.25 6.328 0 2.657.75 4.774 2.25 6.344 1.5 1.574 3.414 2.36 5.75 2.36ZM176.916 213.802c-4.157 0-7.922-.906-11.297-2.719-3.367-1.812-6.012-4.32-7.938-7.53-1.93-3.22-2.89-6.848-2.89-10.891 0-4.051.96-7.68 2.89-10.891 1.926-3.219 4.57-5.727 7.938-7.531 3.375-1.813 7.16-2.72 11.36-2.72 3.538 0 6.741.626 9.609 1.876 2.863 1.242 5.27 3.027 7.218 5.36l-6.078 5.609c-2.762-3.196-6.187-4.797-10.281-4.797-2.531 0-4.793.558-6.781 1.672a11.834 11.834 0 0 0-4.64 4.64c-1.106 1.992-1.657 4.25-1.657 6.782 0 2.53.55 4.793 1.656 6.78a11.937 11.937 0 0 0 4.64 4.641c1.989 1.106 4.25 1.657 6.782 1.657 4.094 0 7.52-1.614 10.281-4.844l6.078 5.61c-1.949 2.374-4.367 4.187-7.25 5.437-2.875 1.238-6.09 1.86-9.64 1.86ZM199.522 181.677h9.11V213.1h-9.11Zm4.563-4.375c-1.68 0-3.043-.484-4.094-1.453-1.055-.977-1.578-2.191-1.578-3.64 0-1.438.523-2.641 1.578-3.61 1.05-.977 2.414-1.469 4.094-1.469 1.664 0 3.023.469 4.078 1.407 1.05.937 1.578 2.105 1.578 3.5 0 1.523-.527 2.78-1.578 3.78-1.055.993-2.414 1.485-4.078 1.485ZM237.367 211.583c-.898.657-1.996 1.153-3.296 1.485-1.305.332-2.68.5-4.125.5-3.73 0-6.621-.953-8.672-2.86-2.043-1.906-3.063-4.71-3.063-8.421V189.38h-4.844v-7h4.844v-7.656h9.11v7.656h7.828v7h-7.828v12.797c0 1.324.336 2.344 1.015 3.063.688.718 1.656 1.078 2.906 1.078 1.438 0 2.66-.383 3.672-1.156ZM242.507 181.677h9.11V213.1h-9.11Zm4.563-4.375c-1.68 0-3.043-.484-4.094-1.453-1.055-.977-1.578-2.191-1.578-3.64 0-1.438.523-2.641 1.578-3.61 1.051-.977 2.414-1.469 4.094-1.469 1.664 0 3.023.469 4.078 1.407 1.05.937 1.578 2.105 1.578 3.5 0 1.523-.527 2.78-1.578 3.78-1.055.993-2.414 1.485-4.078 1.485ZM285.962 206.083v7.016H257.93v-5.484l16-18.922h-15.594v-7.016h27.094v5.485l-16 18.921ZM322.172 197.505c0 .117-.058.934-.171 2.453h-23.782c.438 1.95 1.453 3.493 3.047 4.625 1.594 1.125 3.578 1.688 5.953 1.688 1.633 0 3.082-.242 4.344-.734 1.27-.489 2.453-1.258 3.547-2.313l4.844 5.266c-2.961 3.386-7.282 5.078-12.97 5.078-3.542 0-6.679-.688-9.405-2.063-2.72-1.383-4.82-3.3-6.297-5.75-1.48-2.457-2.219-5.25-2.219-8.375 0-3.07.727-5.843 2.188-8.312 1.457-2.477 3.46-4.406 6.015-5.781 2.551-1.383 5.399-2.079 8.547-2.079 3.082 0 5.867.664 8.36 1.985 2.488 1.324 4.44 3.226 5.859 5.703 1.426 2.469 2.14 5.34 2.14 8.61Zm-16.296-9.406c-2.063 0-3.797.586-5.204 1.75-1.398 1.168-2.25 2.766-2.562 4.797h15.484c-.312-1.988-1.172-3.578-2.578-4.766-1.398-1.187-3.11-1.781-5.14-1.781ZM347.338 181.208c3.894 0 7.039 1.172 9.437 3.516 2.395 2.336 3.594 5.797 3.594 10.39V213.1h-9.11v-16.594c0-2.488-.546-4.343-1.64-5.562-1.086-1.227-2.664-1.844-4.735-1.844-2.293 0-4.12.715-5.484 2.14-1.367 1.419-2.047 3.528-2.047 6.329v15.531h-9.11v-31.422h8.704v3.672c1.207-1.32 2.707-2.344 4.5-3.062 1.789-.72 3.754-1.079 5.89-1.079Zm0 0"/></svg>