<svg xmlns="http://www.w3.org/2000/svg" xmlns:xlink="http://www.w3.org/1999/xlink" width="500" zoomAndPan="magnify" viewBox="0 0 375 374.999991" height="500" preserveAspectRatio="xMidYMid meet" version="1.0"><defs><g/><clipPath id="15d6ce7ce2"><path d="M 324.742188 129.90625 L 365 129.90625 L 365 201.15625 L 324.742188 201.15625 Z M 324.742188 129.90625 " clip-rule="nonzero"/></clipPath></defs><g clip-path="url(#15d6ce7ce2)"><path fill="#0c3060" d="M 324.738281 156.183594 C 343.535156 166.292969 355.042969 167.5 328.957031 194.542969 C 350.246094 184.953125 352.933594 176.898438 353.125 201.449219 C 374.988281 174.789062 359.835938 129.90625 359.835938 129.90625 C 359.835938 129.90625 369.617188 167.308594 324.738281 156.183594 Z M 324.738281 156.183594 " fill-opacity="1" fill-rule="nonzero"/></g><path fill="#406596" d="M 354.921875 145.058594 C 354.921875 149.71875 351.144531 153.5 346.484375 153.5 C 341.820312 153.5 338.042969 149.71875 338.042969 145.058594 C 338.042969 140.398438 341.820312 136.621094 346.484375 136.621094 C 351.140625 136.621094 354.921875 140.398438 354.921875 145.058594 Z M 354.921875 145.058594 " fill-opacity="1" fill-rule="nonzero"/><g fill="#0c3060" fill-opacity="1"><g transform="translate(10.588801, 213.099036)"><g><path d="M 42.34375 -40.890625 L 42.34375 0 L 32.875 0 L 32.875 -16.765625 L 14.3125 -16.765625 L 14.3125 0 L 4.84375 0 L 4.84375 -40.890625 L 14.3125 -40.890625 L 14.3125 -24.765625 L 32.875 -24.765625 L 32.875 -40.890625 Z M 42.34375 -40.890625 "/></g></g></g><g fill="#0c3060" fill-opacity="1"><g transform="translate(57.778874, 213.099036)"><g><path d="M 34.984375 -15.59375 C 34.984375 -15.476562 34.925781 -14.660156 34.8125 -13.140625 L 11.03125 -13.140625 C 11.46875 -11.191406 12.484375 -9.648438 14.078125 -8.515625 C 15.671875 -7.390625 17.65625 -6.828125 20.03125 -6.828125 C 21.664062 -6.828125 23.113281 -7.070312 24.375 -7.5625 C 25.644531 -8.050781 26.828125 -8.820312 27.921875 -9.875 L 32.765625 -4.609375 C 29.804688 -1.222656 25.484375 0.46875 19.796875 0.46875 C 16.253906 0.46875 13.117188 -0.21875 10.390625 -1.59375 C 7.671875 -2.976562 5.570312 -4.894531 4.09375 -7.34375 C 2.613281 -9.800781 1.875 -12.59375 1.875 -15.71875 C 1.875 -18.789062 2.601562 -21.5625 4.0625 -24.03125 C 5.519531 -26.507812 7.523438 -28.4375 10.078125 -29.8125 C 12.628906 -31.195312 15.476562 -31.890625 18.625 -31.890625 C 21.707031 -31.890625 24.492188 -31.226562 26.984375 -29.90625 C 29.472656 -28.582031 31.425781 -26.679688 32.84375 -24.203125 C 34.269531 -21.734375 34.984375 -18.863281 34.984375 -15.59375 Z M 18.6875 -25 C 16.625 -25 14.890625 -24.414062 13.484375 -23.25 C 12.085938 -22.082031 11.234375 -20.484375 10.921875 -18.453125 L 26.40625 -18.453125 C 26.09375 -20.441406 25.234375 -22.03125 23.828125 -23.21875 C 22.429688 -24.40625 20.71875 -25 18.6875 -25 Z M 18.6875 -25 "/></g></g></g><g fill="#0c3060" fill-opacity="1"><g transform="translate(94.631519, 213.099036)"><g><path d="M 4.203125 -43.34375 L 13.3125 -43.34375 L 13.3125 0 L 4.203125 0 Z M 4.203125 -43.34375 "/></g></g></g><g fill="#0c3060" fill-opacity="1"><g transform="translate(112.210996, 213.099036)"><g><path d="M 22.78125 -31.890625 C 25.695312 -31.890625 28.351562 -31.21875 30.75 -29.875 C 33.144531 -28.53125 35.023438 -26.640625 36.390625 -24.203125 C 37.753906 -21.773438 38.4375 -18.945312 38.4375 -15.71875 C 38.4375 -12.476562 37.753906 -9.640625 36.390625 -7.203125 C 35.023438 -4.773438 33.144531 -2.890625 30.75 -1.546875 C 28.351562 -0.203125 25.695312 0.46875 22.78125 0.46875 C 18.769531 0.46875 15.613281 -0.796875 13.3125 -3.328125 L 13.3125 11.328125 L 4.203125 11.328125 L 4.203125 -31.421875 L 12.90625 -31.421875 L 12.90625 -27.796875 C 15.164062 -30.523438 18.457031 -31.890625 22.78125 -31.890625 Z M 21.203125 -7.015625 C 23.535156 -7.015625 25.453125 -7.800781 26.953125 -9.375 C 28.453125 -10.945312 29.203125 -13.0625 29.203125 -15.71875 C 29.203125 -18.363281 28.453125 -20.472656 26.953125 -22.046875 C 25.453125 -23.617188 23.535156 -24.40625 21.203125 -24.40625 C 18.867188 -24.40625 16.953125 -23.617188 15.453125 -22.046875 C 13.953125 -20.472656 13.203125 -18.363281 13.203125 -15.71875 C 13.203125 -13.0625 13.953125 -10.945312 15.453125 -9.375 C 16.953125 -7.800781 18.867188 -7.015625 21.203125 -7.015625 Z M 21.203125 -7.015625 "/></g></g></g><g fill="#0c3060" fill-opacity="1"><g transform="translate(152.509456, 213.099036)"><g><path d="M 24.40625 0.703125 C 20.25 0.703125 16.484375 -0.203125 13.109375 -2.015625 C 9.742188 -3.828125 7.097656 -6.335938 5.171875 -9.546875 C 3.242188 -12.765625 2.28125 -16.394531 2.28125 -20.4375 C 2.28125 -24.488281 3.242188 -28.117188 5.171875 -31.328125 C 7.097656 -34.546875 9.742188 -37.054688 13.109375 -38.859375 C 16.484375 -40.671875 20.269531 -41.578125 24.46875 -41.578125 C 28.007812 -41.578125 31.210938 -40.953125 34.078125 -39.703125 C 36.941406 -38.460938 39.347656 -36.675781 41.296875 -34.34375 L 35.21875 -28.734375 C 32.457031 -31.929688 29.03125 -33.53125 24.9375 -33.53125 C 22.40625 -33.53125 20.144531 -32.972656 18.15625 -31.859375 C 16.175781 -30.753906 14.628906 -29.207031 13.515625 -27.21875 C 12.410156 -25.226562 11.859375 -22.96875 11.859375 -20.4375 C 11.859375 -17.90625 12.410156 -15.644531 13.515625 -13.65625 C 14.628906 -11.675781 16.175781 -10.128906 18.15625 -9.015625 C 20.144531 -7.910156 22.40625 -7.359375 24.9375 -7.359375 C 29.03125 -7.359375 32.457031 -8.972656 35.21875 -12.203125 L 41.296875 -6.59375 C 39.347656 -4.21875 36.929688 -2.40625 34.046875 -1.15625 C 31.171875 0.0820312 27.957031 0.703125 24.40625 0.703125 Z M 24.40625 0.703125 "/></g></g></g><g fill="#0c3060" fill-opacity="1"><g transform="translate(195.319269, 213.099036)"><g><path d="M 4.203125 -31.421875 L 13.3125 -31.421875 L 13.3125 0 L 4.203125 0 Z M 8.765625 -35.796875 C 7.085938 -35.796875 5.722656 -36.28125 4.671875 -37.25 C 3.617188 -38.226562 3.09375 -39.441406 3.09375 -40.890625 C 3.09375 -42.328125 3.617188 -43.53125 4.671875 -44.5 C 5.722656 -45.476562 7.085938 -45.96875 8.765625 -45.96875 C 10.429688 -45.96875 11.789062 -45.5 12.84375 -44.5625 C 13.894531 -43.625 14.421875 -42.457031 14.421875 -41.0625 C 14.421875 -39.539062 13.894531 -38.28125 12.84375 -37.28125 C 11.789062 -36.289062 10.429688 -35.796875 8.765625 -35.796875 Z M 8.765625 -35.796875 "/></g></g></g><g fill="#0c3060" fill-opacity="1"><g transform="translate(212.898746, 213.099036)"><g><path d="M 24.46875 -1.515625 C 23.570312 -0.859375 22.472656 -0.363281 21.171875 -0.03125 C 19.867188 0.300781 18.492188 0.46875 17.046875 0.46875 C 13.316406 0.46875 10.425781 -0.484375 8.375 -2.390625 C 6.332031 -4.296875 5.3125 -7.101562 5.3125 -10.8125 L 5.3125 -23.71875 L 0.46875 -23.71875 L 0.46875 -30.71875 L 5.3125 -30.71875 L 5.3125 -38.375 L 14.421875 -38.375 L 14.421875 -30.71875 L 22.25 -30.71875 L 22.25 -23.71875 L 14.421875 -23.71875 L 14.421875 -10.921875 C 14.421875 -9.597656 14.757812 -8.578125 15.4375 -7.859375 C 16.125 -7.140625 17.09375 -6.78125 18.34375 -6.78125 C 19.78125 -6.78125 21.003906 -7.164062 22.015625 -7.9375 Z M 24.46875 -1.515625 "/></g></g></g><g fill="#0c3060" fill-opacity="1"><g transform="translate(238.304298, 213.099036)"><g><path d="M 4.203125 -31.421875 L 13.3125 -31.421875 L 13.3125 0 L 4.203125 0 Z M 8.765625 -35.796875 C 7.085938 -35.796875 5.722656 -36.28125 4.671875 -37.25 C 3.617188 -38.226562 3.09375 -39.441406 3.09375 -40.890625 C 3.09375 -42.328125 3.617188 -43.53125 4.671875 -44.5 C 5.722656 -45.476562 7.085938 -45.96875 8.765625 -45.96875 C 10.429688 -45.96875 11.789062 -45.5 12.84375 -44.5625 C 13.894531 -43.625 14.421875 -42.457031 14.421875 -41.0625 C 14.421875 -39.539062 13.894531 -38.28125 12.84375 -37.28125 C 11.789062 -36.289062 10.429688 -35.796875 8.765625 -35.796875 Z M 8.765625 -35.796875 "/></g></g></g><g fill="#0c3060" fill-opacity="1"><g transform="translate(255.883775, 213.099036)"><g><path d="M 30.078125 -7.015625 L 30.078125 0 L 2.046875 0 L 2.046875 -5.484375 L 18.046875 -24.40625 L 2.453125 -24.40625 L 2.453125 -31.421875 L 29.546875 -31.421875 L 29.546875 -25.9375 L 13.546875 -7.015625 Z M 30.078125 -7.015625 "/></g></g></g><g fill="#0c3060" fill-opacity="1"><g transform="translate(287.188048, 213.099036)"><g><path d="M 34.984375 -15.59375 C 34.984375 -15.476562 34.925781 -14.660156 34.8125 -13.140625 L 11.03125 -13.140625 C 11.46875 -11.191406 12.484375 -9.648438 14.078125 -8.515625 C 15.671875 -7.390625 17.65625 -6.828125 20.03125 -6.828125 C 21.664062 -6.828125 23.113281 -7.070312 24.375 -7.5625 C 25.644531 -8.050781 26.828125 -8.820312 27.921875 -9.875 L 32.765625 -4.609375 C 29.804688 -1.222656 25.484375 0.46875 19.796875 0.46875 C 16.253906 0.46875 13.117188 -0.21875 10.390625 -1.59375 C 7.671875 -2.976562 5.570312 -4.894531 4.09375 -7.34375 C 2.613281 -9.800781 1.875 -12.59375 1.875 -15.71875 C 1.875 -18.789062 2.601562 -21.5625 4.0625 -24.03125 C 5.519531 -26.507812 7.523438 -28.4375 10.078125 -29.8125 C 12.628906 -31.195312 15.476562 -31.890625 18.625 -31.890625 C 21.707031 -31.890625 24.492188 -31.226562 26.984375 -29.90625 C 29.472656 -28.582031 31.425781 -26.679688 32.84375 -24.203125 C 34.269531 -21.734375 34.984375 -18.863281 34.984375 -15.59375 Z M 18.6875 -25 C 16.625 -25 14.890625 -24.414062 13.484375 -23.25 C 12.085938 -22.082031 11.234375 -20.484375 10.921875 -18.453125 L 26.40625 -18.453125 C 26.09375 -20.441406 25.234375 -22.03125 23.828125 -23.21875 C 22.429688 -24.40625 20.71875 -25 18.6875 -25 Z M 18.6875 -25 "/></g></g></g><g fill="#0c3060" fill-opacity="1"><g transform="translate(324.040693, 213.099036)"><g><path d="M 23.296875 -31.890625 C 27.191406 -31.890625 30.335938 -30.71875 32.734375 -28.375 C 35.128906 -26.039062 36.328125 -22.578125 36.328125 -17.984375 L 36.328125 0 L 27.21875 0 L 27.21875 -16.59375 C 27.21875 -19.082031 26.671875 -20.9375 25.578125 -22.15625 C 24.492188 -23.382812 22.914062 -24 20.84375 -24 C 18.550781 -24 16.722656 -23.285156 15.359375 -21.859375 C 13.992188 -20.441406 13.3125 -18.332031 13.3125 -15.53125 L 13.3125 0 L 4.203125 0 L 4.203125 -31.421875 L 12.90625 -31.421875 L 12.90625 -27.75 C 14.113281 -29.070312 15.613281 -30.09375 17.40625 -30.8125 C 19.195312 -31.53125 21.160156 -31.890625 23.296875 -31.890625 Z M 23.296875 -31.890625 "/></g></g></g></svg>